<svg width="597" height="433" xmlns="http://www.w3.org/2000/svg" xmlns:xlink="http://www.w3.org/1999/xlink" overflow="hidden"><defs><clipPath id="clip0"><rect x="38" y="383" width="597" height="433"/></clipPath><clipPath id="clip1"><rect x="39" y="384" width="595" height="432"/></clipPath><clipPath id="clip2"><rect x="39" y="384" width="595" height="432"/></clipPath><clipPath id="clip3"><rect x="39" y="384" width="595" height="432"/></clipPath></defs><g clip-path="url(#clip0)" transform="translate(-38 -383)"><g clip-path="url(#clip1)"><g clip-path="url(#clip2)"><g clip-path="url(#clip3)"><path d="M200.08 652.346C201.471 650.282 204.115 649.54 206.526 649.007 233.589 643.163 261.625 648.009 289.104 651.21 308.236 653.436 327.46 654.827 346.707 655.407 384.344 656.543 422.004 654.503 459.617 652.485 520.142 649.238 580.667 645.969 641.169 642.722 679.756 640.658 718.807 638.594 756.745 645.992 763.725 647.36 770.961 649.169 776.341 653.83 784.434 660.81 786.498 672.312 788.074 682.863 789.257 690.794 789.79 700.418 783.344 705.172 779.541 707.978 774.462 708.07 769.755 708.07 699.629 707.908 629.527 707.746 559.402 707.607 509.127 707.491 458.852 707.375 408.577 707.259 360.969 707.143 313.337 707.05 265.776 704.986 251.375 704.36 214.434 708.859 203.581 698.215 196.717 691.49 195.163 659.558 200.08 652.346Z" fill="#CADFDF" transform="matrix(1.00071 0 0 1 -156.394 107.222)"/><path d="M247.665 646.711C261.486 647.592 275.376 649.61 289.128 651.21 308.259 653.436 327.483 654.827 346.73 655.407 384.367 656.543 422.027 654.503 459.641 652.485 520.165 649.238 580.69 645.969 641.192 642.722 679.779 640.658 718.83 638.594 756.769 645.992 763.749 647.36 770.984 649.169 776.364 653.83" stroke="#144778" stroke-width="11.5948" stroke-linecap="round" stroke-linejoin="round" stroke-miterlimit="10" fill="none" transform="matrix(1.00071 0 0 1 -156.394 107.222)"/><path d="M252.233 606.848C257.52 600.61 262.831 594.349 268.118 588.111 308.027 541.059 347.936 493.984 387.846 446.933 415.418 483.271 444.73 518.31 475.641 551.865 473.925 525.824 482.529 500.385 489.88 475.363 503.747 428.126 513.464 379.683 518.913 330.753 562.162 415.464 596.737 504.28 631.22 592.934 646.247 567.913 658.491 541.221 667.651 513.51 676.069 528.166 684.463 542.798 692.881 557.454 695.78 538.415 703.386 520.42 707.815 501.683 714.424 473.601 713.775 444.359 717.532 415.743 722.193 380.216 733.579 345.942 744.895 311.946" stroke="#144778" stroke-width="11.5948" stroke-linecap="round" stroke-linejoin="round" stroke-miterlimit="10" fill="none" transform="matrix(1.00071 0 0 1 -156.394 107.222)"/><path d="M649.447 505.486C644.322 507.457 642.56 514.322 644.554 519.423 646.548 524.525 651.21 528.073 655.963 530.786 660.671 533.476 665.842 535.633 671.245 535.888 676.649 536.143 682.376 534.195 685.716 529.905 690.052 524.316 689.287 515.898 685.229 510.101 681.194 504.304 674.515 500.802 667.721 498.9 661.436 497.138 653.459 497.115 649.772 502.495 648.125 504.907 647.708 507.944 647.662 510.866 647.546 517.475 649.053 524.084 652.044 529.998" fill="#D5604A" transform="matrix(1.00071 0 0 1 -156.394 107.222)"/><path d="M497.973 315.633C490.946 318.346 488.488 327.808 491.225 334.811 493.961 341.837 500.385 346.73 506.924 350.464 513.417 354.151 520.513 357.143 527.957 357.467 535.401 357.792 543.285 355.125 547.854 349.235 553.813 341.559 552.77 329.964 547.204 321.987 541.639 314.01 532.456 309.21 523.11 306.566 514.461 304.131 503.469 304.108 498.39 311.529 496.118 314.845 495.561 319.019 495.492 323.031 495.329 332.121 497.416 341.235 501.521 349.328" fill="#F9B347" transform="matrix(1.00071 0 0 1 -156.394 107.222)"/><path d="M721.451 288.687C714.285 291.447 711.804 301.07 714.587 308.236 717.369 315.378 723.909 320.364 730.587 324.167 737.197 327.924 744.409 330.962 752.015 331.309 759.621 331.657 767.621 328.921 772.282 322.938 778.358 315.123 777.268 303.32 771.61 295.18 765.952 287.041 756.606 282.171 747.075 279.481 738.263 276.999 727.086 276.976 721.915 284.513 719.619 287.875 719.039 292.142 718.946 296.224 718.784 305.476 720.894 314.752 725.068 323.008" fill="#F9B347" transform="matrix(1.00071 0 0 1 -156.394 107.222)"/><path d="M449.669 533.523C443.292 535.981 441.066 544.561 443.547 550.915 446.028 557.292 451.849 561.721 457.785 565.107 463.652 568.446 470.099 571.159 476.847 571.461 483.595 571.762 490.738 569.35 494.889 563.994 500.292 557.014 499.341 546.509 494.286 539.274 489.23 532.038 480.929 527.679 472.418 525.29 464.58 523.087 454.608 523.064 450.017 529.789 447.953 532.804 447.443 536.584 447.373 540.224 447.234 548.457 449.112 556.735 452.823 564.086" fill="#CADFDF" transform="matrix(1.00071 0 0 1 -156.394 107.222)"/><path d="M243.56 582.453C236.255 585.258 233.728 595.068 236.557 602.372 239.409 609.654 246.065 614.732 252.859 618.605 259.584 622.431 266.958 625.539 274.68 625.863 282.403 626.211 290.589 623.428 295.342 617.33 301.534 609.352 300.444 597.317 294.647 589.038 288.873 580.76 279.342 575.774 269.625 573.038 260.651 570.51 249.242 570.487 243.977 578.186 241.635 581.618 241.032 585.954 240.963 590.128 240.801 599.543 242.957 609.005 247.201 617.422" fill="#F9B347" transform="matrix(1.00071 0 0 1 -156.394 107.222)"/></g></g></g></g></svg>